#!OML:ASF I:\Actors\actors\Patient Classification 1\Patient 1\Session 1\Subject1.ASF
:FULLY-SPECIFIED
:DEGREES
674
root 0.907201 17.5164 8.70358 5.8131 0.0394958 -8.04336
lowerback -3.87457 0.719207 6.32705
upperback -10.9387 1.18495 1.42381
thorax -9.35813 0.118965 -2.05741
lowerneck -10.0459 -4.21317 -4.20855
upperneck 29.9921 -7.97003 8.80274
head 12.0335 -3.03594 2.96727
rclavicle 6.75868e-015 5.1684e-015
rhumerus -7.49661 -11.7933 -85.7643
rradius 94.1117
rwrist 30.6128
rhand -12.9524 315.916
rfingers 7.12502
rthumb 13.1391 -73.6503
lclavicle 6.75868e-015 5.1684e-015
lhumerus -12.7018 12.825 93.0389
lradius 87.9786
lwrist -17.5988
lhand -27.1193 -18.7022
lfingers 7.12502
lthumb -0.535347 371.277
rfemur -3.21093 22.4634 25.7512
rtibia 8.97041
rfoot -14.0124 -19.7034
rtoes -0.503866
lfemur 4.75751 -33.4007 -11.6924
ltibia -1.74299
lfoot -11.2622 40.2052
ltoes -2.59841
675
root 0.906907 17.518 8.68539 5.83633 0.158203 -8.1357
lowerback -3.55377 0.652824 6.59929
upperback -10.8826 1.12462 1.40613
thorax -9.49047 0.0616604 -2.22855
lowerneck -9.92099 -4.1693 -3.94016
upperneck 29.5438 -7.8597 8.60847
head 11.7977 -2.99337 2.85326
rclavicle 3.97569e-016 1.59028e-015
rhumerus -5.99293 -7.53606 -87.0107
rradius 95.6368
rwrist 28.8002
rhand -12.9885 314.971
rfingers 7.12502
rthumb 13.1043 -74.5976
lclavicle 3.97569e-016 1.59028e-015
lhumerus -11.2746 9.63967 94.3007
lradius 89.0874
lwrist -16.1936
lhand -26.1377 -19.4403
lfingers 7.12502
lthumb 0.412777 370.539
rfemur -3.27829 22.4965 25.8405
rtibia 8.92296
rfoot -14.0377 -19.8237
rtoes -0.031814
lfemur 4.51405 -33.331 -11.4251
ltibia -1.6771
lfoot -11.1943 40.0382
ltoes -2.56566
676
root 0.906123 17.5175 8.66796 5.85465 0.297023 -8.15973
lowerback -2.56565 0.577076 6.77737
upperback -11.2547 1.13274 1.36549
thorax -10.5076 0.00885176 -2.38007
lowerneck -9.64946 -4.24993 -3.76009
upperneck 29.6364 -7.95662 8.35585
head 11.766 -3.05394 2.71997
rclavicle -8.54774e-015 2.38542e-015
rhumerus -5.59698 -2.48614 -88.2194
rradius 97.647
rwrist 25.8342
rhand -13.4486 313.514
rfingers 7.12502
rthumb 12.6607 -76.0827
lclavicle -8.54774e-015 2.38542e-015
lhumerus -10.9613 4.98045 95.4895
lradius 90.9082
lwrist -12.5908
lhand -28.1835 -18.0588
lfingers 7.12502
lthumb -1.56316 371.915
rfemur -3.39294 22.4521 25.8392
rtibia 8.96649
rfoot -13.9833 -19.9002
rtoes -0.16385
lfemur 4.2294 -33.1681 -11.2201
ltibia -1.55446
lfoot -11.0427 39.7763
ltoes -2.79769
677
root 0.902736 17.5184 8.65288 5.8929 0.395499 -8.13366
lowerback -2.39991 0.422884 6.604
upperback -10.9983 0.933796 1.54207
thorax -10.3296 -0.0526751 -2.08517
lowerneck -10.1328 -4.27716 -3.71614
upperneck 29.4587 -7.90123 8.09352
head 11.7759 -3.04557 2.60771
rclavicle 3.77691e-015 1.86858e-014
rhumerus -4.6248 3.22747 -89.5841
rradius 99.984
rwrist 22.7742
rhand -10.1252 312.351
rfingers 7.12502
rthumb 15.8631 -77.0195
lclavicle 3.77691e-015 1.86858e-014
lhumerus -9.83901 -0.681062 96.7545
lradius 93.2357
lwrist -6.84743
lhand -28.9925 -19.3166
lfingers 7.12502
lthumb -2.34444 370.65
rfemur -3.57676 22.3653 25.7692
rtibia 9.11674
rfoot -14.0162 -19.871
rtoes -0.16089
lfemur 3.96083 -32.9653 -11.0678
ltibia -1.46035
lfoot -10.8683 39.5155
ltoes -3.02057
678
root 0.89714 17.5222 8.63821 6.0111 0.3977 -8.01118
lowerback -1.90888 0.478333 6.66853
upperback -11.0894 1.04389 1.35113
thorax -10.7176 -0.0292841 -2.33704
lowerneck -10.3737 -4.50672 -3.82107
upperneck 29.5476 -8.23967 8.14975
head 11.8957 -3.19477 2.59641
rclavicle -1.98785e-015 -1.59028e-015
rhumerus -5.17121 8.35716 -91.4577
rradius 102.664
rwrist 20.1506
rhand -10.5747 314.175
rfingers 7.12502
rthumb 15.4301 -75.2287
lclavicle -1.98785e-015 -1.59028e-015
lhumerus -9.68867 -7.4272 97.7721
lradius 95.8573
lwrist -1.60698
lhand -29.2568 -20.9342
lfingers 7.12502
lthumb -2.59968 369.03
rfemur -3.90643 22.3332 25.5521
rtibia 9.34144
rfoot -14.0613 -19.8347
rtoes -0.142817
lfemur 3.6322 -32.8154 -11.0059
ltibia -1.35752
lfoot -10.787 39.3771
ltoes -3.04742
679
root 0.891594 17.5262 8.62465 6.19939 0.33199 -7.88846
lowerback -2.089 0.43009 6.43017
upperback -10.7164 0.939374 1.42479
thorax -10.1862 -0.0321144 -2.11967
lowerneck -10.8533 -4.59933 -3.69969
upperneck 29.0083 -8.232 7.79835
head 11.7564 -3.21909 2.424
rclavicle -1.63003e-014 3.29983e-014
rhumerus -4.29895 14.7564 -92.4927
rradius 105.452
rwrist 18.6682
rhand -10.7166 313.679
rfingers 7.12502
rthumb 15.2934 -75.736
lclavicle -1.63003e-014 3.29983e-014
lhumerus -9.02575 -14.0173 98.5178
lradius 98.6562
lwrist 1.26774
lhand -27.3689 -19.4613
lfingers 7.12502
lthumb -0.776347 370.517
rfemur -4.34162 22.343 25.3043
rtibia 9.58369
rfoot -14.0048 -19.8325
rtoes -0.490013
lfemur 3.26253 -32.6664 -10.9229
ltibia -1.279
lfoot -10.7386 39.3081
ltoes -3.1252
680
root 0.886863 17.528 8.61326 6.41099 0.233419 -7.86056
lowerback -1.43176 0.497838 6.6122
upperback -10.9908 1.09679 1.27061
thorax -10.884 -0.00685407 -2.40184
lowerneck -11.4878 -4.92597 -3.46871
upperneck 29.6846 -8.59797 7.0586
head 12.1335 -3.41574 2.0477
rclavicle 1.89839e-014 -2.90226e-014
rhumerus -4.53139 20.8597 -93.6466
rradius 108.01
rwrist 17.1935
rhand -11.1349 313.287
rfingers 7.12502
rthumb 14.8906 -76.1578
lclavicle 1.89839e-014 -2.90226e-014
lhumerus -9.94235 -20.9129 99.2882
lradius 101.516
lwrist 2.69431
lhand -27.1174 -21.26
lfingers 7.12502
lthumb -0.533465 368.719
rfemur -4.7924 22.3618 25.1537
rtibia 9.82368
rfoot -13.9583 -19.785
rtoes -0.785732
lfemur 2.92596 -32.5365 -10.7368
ltibia -1.25348
lfoot -10.76 39.3015
ltoes -3.04119
681
root 0.884075 17.5279 8.60457 6.59377 0.106924 -7.88363
lowerback -1.61421 0.41702 6.50316
upperback -10.6667 0.965659 1.47128
thorax -10.413 -0.0296058 -2.11613
lowerneck -11.5178 -4.66281 -3.91286
upperneck 28.7477 -8.19683 7.66688
head 11.7904 -3.22963 2.39754
rclavicle -8.94531e-015 6.36111e-015
rhumerus -3.3985 27.4931 -93.9015
rradius 110.026
rwrist 15.0271
rhand -9.91994 313.633
rfingers 7.12502
rthumb 16.0607 -75.7215
lclavicle -8.94531e-015 6.36111e-015
lhumerus -9.86499 -27.0648 99.6753
lradius 104.335
lwrist 4.58287
lhand -28.9247 -21.7642
lfingers 7.12502
lthumb -2.27895 368.203
rfemur -5.17287 22.3505 25.0721
rtibia 10.027
rfoot -13.9402 -19.6637
rtoes -1.03337
lfemur 2.69793 -32.4835 -10.5633
ltibia -1.26455
lfoot -10.8166 39.4103
ltoes -2.85004
682
root 0.884011 17.5272 8.5995 6.72859 -0.0249457 -7.89862
lowerback -1.44063 0.306661 6.46554
upperback -10.5945 0.840744 1.65819
thorax -10.4476 -0.0770879 -1.88723
lowerneck -11.9298 -4.47354 -3.74189
upperneck 28.7096 -7.82131 7.2517
head 11.8036 -3.08142 2.25741
rclavicle -1.49089e-015 4.96962e-015
rhumerus -2.61946 33.8671 -93.9014
rradius 111.772
rwrist 12.6877
rhand -10.0726 312.271
rfingers 7.12502
rthumb 15.9138 -77.0954
lclavicle -1.49089e-015 4.96962e-015
lhumerus -10.3643 -32.8202 100.228
lradius 107.234
lwrist 7.86944
lhand -28.5425 -22.8658
lfingers 7.12502
lthumb -1.90989 367.105
rfemur -5.44057 22.3014 25.0079
rtibia 10.1468
rfoot -13.8737 -19.5339
rtoes -1.43858
lfemur 2.61131 -32.5036 -10.4927
ltibia -1.33449
lfoot -10.7716 39.5975
ltoes -2.90327
683
root 0.885058 17.5258 8.59752 6.86159 -0.152183 -7.95184
lowerback -1.19683 0.29167 6.67664
upperback -10.6026 0.852274 1.66659
thorax -10.6059 -0.0951783 -1.99712
lowerneck -12.1854 -4.39594 -3.69835
upperneck 28.6424 -7.67016 7.13153
head 11.8112 -3.01784 2.22061
rclavicle 5.61567e-015 -1.23246e-014
rhumerus -2.10671 39.7274 -93.7351
rradius 113.339
rwrist 10.8677
rhand -10.5927 311.871
rfingers 7.12502
rthumb 15.4128 -77.5344
lclavicle 5.61567e-015 -1.23246e-014
lhumerus -11.1801 -38.1989 100.932
lradius 109.997
lwrist 10.3912
lhand -30.7243 -24.2044
lfingers 7.12502
lthumb -4.01686 365.738
rfemur -5.65896 22.2978 24.9955
rtibia 10.2139
rfoot -13.8207 -19.4294
rtoes -1.59241
lfemur 2.57194 -32.6151 -10.4049
ltibia -1.44152
lfoot -10.7451 39.8492
ltoes -2.84142
684
root 0.886675 17.524 8.59818 6.99221 -0.2679 -7.98446
lowerback -1.00907 0.333665 6.90113
upperback -10.6123 0.930721 1.59103
thorax -10.7253 -0.0856819 -2.20996
lowerneck -12.2989 -4.34564 -3.59265
upperneck 28.4519 -7.60099 7.12675
head 11.7503 -2.9766 2.20578
rclavicle 1.49089e-016 2.52457e-014
rhumerus -2.00257 42.8545 -93.8133
rradius 115.762
rwrist 9.33544
rhand -15.8733 306.42
rfingers 7.12502
rthumb 10.3224 -83.3067
lclavicle 1.49089e-016 2.52457e-014
lhumerus -11.8376 -40.1202 101.535
lradius 112.58
lwrist 9.81086
lhand -33.44 -23.7013
lfingers 7.12502
lthumb -6.63899 366.175
rfemur -5.84109 22.3326 24.9655
rtibia 10.277
rfoot -13.8258 -19.3267
rtoes -1.58008
lfemur 2.53438 -32.7551 -10.3493
ltibia -1.52746
lfoot -10.8252 40.0954
ltoes -2.55118
685
root 0.888832 17.5232 8.60051 7.09656 -0.351017 -7.93075
lowerback -0.951484 0.370328 6.98471
upperback -10.5241 0.975955 1.49078
thorax -10.6531 -0.073194 -2.36903
lowerneck -12.5736 -4.37312 -3.56873
upperneck 28.2622 -7.65939 7.24086
head 11.7412 -2.98301 2.22781
rclavicle -9.34288e-015 3.63776e-014
rhumerus -2.08957 42.5275 -94.0229
rradius 118.196
rwrist 9.27188
rhand -14.3306 309.312
rfingers 7.12502
rthumb 11.8103 -80.335
lclavicle -9.34288e-015 3.63776e-014
lhumerus -12.5456 -40.37 102.065
lradius 115.312
lwrist 10.8161
lhand -31.7821 -24.5701
lfingers 7.12502
lthumb -5.03835 365.35
rfemur -5.9807 22.3268 24.8504
rtibia 10.3272
rfoot -13.8014 -19.2323
rtoes -1.86274
lfemur 2.48486 -32.8414 -10.3996
ltibia -1.55073
lfoot -10.9702 40.2355
ltoes -2.20595
686
root 0.888158 17.5216 8.60335 7.17105 -0.392381 -7.89868
lowerback -0.871417 0.41161 7.02392
upperback -10.4653 1.02873 1.38427
thorax -10.6269 -0.0551034 -2.51082
lowerneck -12.7762 -4.45047 -3.56524
upperneck 28.1206 -7.80771 7.40802
head 11.7464 -3.02666 2.26202
rclavicle -3.37934e-015 -2.78299e-015
rhumerus -2.47373 42.1216 -93.9441
rradius 120.369
rwrist 10.0172
rhand -14.4539 311.384
rfingers 7.12502
rthumb 11.6914 -78.2702
lclavicle -3.37934e-015 -2.78299e-015
lhumerus -12.9674 -40.7404 101.98
lradius 117.098
lwrist 9.88855
lhand -31.8044 -26.0611
lfingers 7.12502
lthumb -5.05989 363.858
rfemur -6.07718 22.3185 24.7829
rtibia 10.3614
rfoot -13.7051 -19.1583
rtoes -2.26255
lfemur 2.44407 -32.9255 -10.4141
ltibia -1.5643
lfoot -11.0701 40.3316
ltoes -2.02876
687
root 0.88295 17.5193 8.6063 7.20648 -0.376606 -7.90476
lowerback -0.73124 0.454963 6.99473
upperback -10.5085 1.09534 1.31323
thorax -10.7533 -0.0288683 -2.57775
lowerneck -12.7344 -4.55624 -3.57436
upperneck 28.0859 -7.97226 7.45685
head 11.7389 -3.09793 2.25799
rclavicle -4.67144e-015 2.14687e-014
rhumerus -2.83484 41.6705 -93.4391
rradius 122.155
rwrist 9.83277
rhand -13.9685 311.463
rfingers 7.12502
rthumb 12.1594 -78.164
lclavicle -4.67144e-015 2.14687e-014
lhumerus -12.9001 -41.6338 101.152
lradius 118.267
lwrist 8.99195
lhand -32.9354 -27.8262
lfingers 7.12502
lthumb -6.15184 362.064
rfemur -6.10487 22.3569 24.7958
rtibia 10.3688
rfoot -13.7059 -19.1578
rtoes -2.10018
lfemur 2.4421 -33.01 -10.3755
ltibia -1.61784
lfoot -11.0212 40.399
ltoes -2.18302
688
root 0.876185 17.5198 8.60918 7.1869 -0.286559 -7.87772
lowerback -0.634893 0.48154 6.83259
upperback -10.5549 1.13279 1.29266
thorax -10.8595 -0.000984027 -2.51401
lowerneck -12.9518 -4.8124 -3.56812
upperneck 28.5547 -8.27959 7.09397
head 11.9707 -3.26398 2.07681
rclavicle -1.50082e-014 2.98177e-014
rhumerus -2.0741 41.7506 -91.6466
rradius 123.314
rwrist 8.31673
rhand -14.7222 310.918
rfingers 7.12502
rthumb 11.4327 -78.7502
lclavicle -1.50082e-014 2.98177e-014
lhumerus -12.4774 -42.6526 99.9672
lradius 119.182
lwrist 8.9106
lhand -34.1683 -29.1367
lfingers 7.12502
lthumb -7.34203 360.716
rfemur -6.03591 22.4181 24.8085
rtibia 10.3122
rfoot -13.9032 -19.2797
rtoes -1.25944
lfemur 2.47888 -33.1353 -10.4008
ltibia -1.66065
lfoot -10.9659 40.4401
ltoes -2.26927
